<svg  viewBox="0 0 600 600" fill="none" xmlns="http://www.w3.org/2000/svg">
<path d="M0 240C0 156 0 114 16.35 81.9C30.7308 53.6769 53.6769 30.7308 81.9 16.35C114 0 156 0 240 0H360C444 0 486 0 518.1 16.35C546.323 30.7308 569.269 53.6769 583.65 81.9C600 114 600 156 600 240V360C600 444 600 486 583.65 518.1C569.269 546.323 546.323 569.269 518.1 583.65C486 600 444 600 360 600H240C156 600 114 600 81.9 583.65C53.6769 569.269 30.7308 546.323 16.35 518.1C0 486 0 444 0 360V240Z" fill="url(#paint0_linear_20_111)"/>
<path d="M548.375 299.975C548.375 249.875 533.175 200.975 504.875 159.675V98.975C504.875 96.975 503.275 95.275 501.175 95.275H440.475C356.075 37.575 244.775 37.575 160.375 95.275H99.875C98.975 95.275 97.975 95.675 97.275 96.375C96.575 97.075 96.175 98.075 96.175 98.975V158.675C37.275 243.575 37.275 356.175 96.175 441.075V501.075C96.175 503.075 97.775 504.775 99.875 504.775H160.275C245.175 562.775 356.975 562.375 441.475 503.875H501.175C503.175 503.875 504.875 502.275 504.875 500.175V440.175C533.075 398.975 548.375 350.075 548.375 299.975ZM85.775 299.975C85.775 181.575 181.775 85.575 300.175 85.575C418.575 85.575 514.575 181.575 514.575 299.975C514.575 418.375 418.575 514.375 300.175 514.375C181.775 514.275 85.875 418.375 85.775 299.975Z" fill="#0F0F15"/>
<path d="M167.475 192.475H243.375C241.575 200.975 240.775 209.675 240.775 218.375C244.075 252.375 266.275 345.175 266.275 345.175L302.175 199.675L338.975 342.275C338.975 342.275 360.875 217.075 360.875 208.675C359.975 202.475 356.775 196.575 352.075 192.575H432.275C421.575 202.475 413.875 215.075 409.675 228.975C402.475 256.575 378.075 395.475 378.075 404.275C378.475 413.375 381.775 421.975 387.375 429.175H312.775C314.575 422.575 315.375 415.775 315.175 408.875C315.175 396.175 303.375 335.575 303.375 335.575C303.375 335.575 288.175 398.275 288.175 409.675C288.175 416.475 289.775 423.175 293.075 429.175H215.475C215.475 429.175 230.275 418.775 229.675 408.875C228.075 380.475 188.075 232.775 185.475 221.375C183.575 209.775 177.075 199.375 167.475 192.475Z" fill="#0F0F15"/>
<defs>
<linearGradient id="paint0_linear_20_111" x1="0" y1="600" x2="600" y2="0" gradientUnits="userSpaceOnUse">
<stop stop-color="#B18E2B"/>
<stop offset="1" stop-color="#FFBC00"/>
</linearGradient>
</defs>
</svg>
