<svg  viewBox="0 0 600 600" fill="none" xmlns="http://www.w3.org/2000/svg">
<path d="M0 240C0 156 0 114 16.35 81.9C30.7308 53.6769 53.6769 30.7308 81.9 16.35C114 0 156 0 240 0H360C444 0 486 0 518.1 16.35C546.323 30.7308 569.269 53.6769 583.65 81.9C600 114 600 156 600 240V360C600 444 600 486 583.65 518.1C569.269 546.323 546.323 569.269 518.1 583.65C486 600 444 600 360 600H240C156 600 114 600 81.9 583.65C53.6769 569.269 30.7308 546.323 16.35 518.1C0 486 0 444 0 360V240Z" fill="url(#paint0_linear_20_103)"/>
<path d="M231.282 132.939C231.662 164.339 231.282 194.561 231.282 228.775C231.282 238.934 230.775 249.119 231.282 258.62C233.739 304.61 276.96 338.238 323.579 321.249C346.158 313.022 364.613 293.329 368.051 266.186C370.215 249.112 368.47 223.175 368.47 200.193C368.47 184.826 368.47 167.482 368.47 150.172C368.47 145.389 367.988 136.941 368.47 133.781C368.47 133.781 380.952 126.914 383.575 125.374C398.758 116.453 410.955 106.567 429.304 101.415C459.43 92.9554 483.31 108.349 496.849 122.431C511.776 137.956 521.705 164.922 512.372 192.628C504.509 215.971 485.484 226.636 466.644 239.704C430.21 264.975 402.231 298.992 384.833 343.947C376.483 365.522 371.618 393.965 368.891 420.027C367.284 435.384 366.488 448.146 361.758 459.539C353.207 480.135 335.761 497.044 309.735 500.31C265.573 505.852 238.689 477.318 232.96 439.362C230.795 425.018 230.242 410.798 228.345 397.329C218.977 330.815 187.598 282.393 144.437 248.531C118.474 228.162 82.9465 214.557 84.0239 169.508C84.3604 155.429 88.8873 142.974 94.5121 133.781C105.638 115.594 124.988 99.5135 154.087 99.3131C188.5 99.0764 205.229 120.182 231.282 132.939Z" fill="#0F0F15"/>
<path d="M298.204 134.09C320.823 132.64 340.184 148.924 344.611 169.324C347.135 180.951 345.448 203.164 345.448 215.462C345.448 230.132 346.654 248.453 345.029 262.02C343.219 277.128 334.939 288.227 325.798 294.319C297.926 312.888 258.239 296.329 254.724 260.343C253.095 243.653 254.724 227.479 254.724 210.848C254.724 194.671 253.159 175.381 257.231 163.87C262.566 148.801 277.335 135.428 298.204 134.09Z" fill="#100F0D"/>
<defs>
<linearGradient id="paint0_linear_20_103" x1="0" y1="600" x2="600" y2="0" gradientUnits="userSpaceOnUse">
<stop stop-color="#AEAEAE"/>
<stop offset="1" stop-color="#D7D7D7"/>
</linearGradient>
</defs>
</svg>
