<svg  viewBox="0 0 600 600" fill="none" xmlns="http://www.w3.org/2000/svg">
<path d="M0 240C0 156 0 114 16.35 81.9C30.7308 53.6769 53.6769 30.7308 81.9 16.35C114 0 156 0 240 0H360C444 0 486 0 518.1 16.35C546.323 30.7308 569.269 53.6769 583.65 81.9C600 114 600 156 600 240V360C600 444 600 486 583.65 518.1C569.269 546.323 546.323 569.269 518.1 583.65C486 600 444 600 360 600H240C156 600 114 600 81.9 583.65C53.6769 569.269 30.7308 546.323 16.35 518.1C0 486 0 444 0 360V240Z" fill="url(#paint0_linear_19_52)"/>
<path d="M295.485 527.552C277.098 518.87 266.16 512.911 253.562 504.782C212.49 478.309 175.674 438.471 144.179 386.376C137.965 376.161 137.114 374.459 136.858 371.692C136.39 367.309 138.986 364.202 144.86 362.073C147.413 361.18 148.222 361.095 156.947 361.095C184.91 361.18 223.556 368.713 257.605 380.758C293.356 393.441 325.022 410.806 347.197 429.959C362.561 443.195 372.819 457.666 375.245 469.541C377.16 478.819 375.074 486.693 369.031 493.077C364.987 497.334 355.241 503.888 339.536 512.954C331.364 517.635 304.635 531.127 303.529 531.127C303.188 531.127 299.57 529.51 295.485 527.552Z" fill="#0F0F15"/>
<path d="M385.289 476.308C385.289 452.559 363.157 422.128 325.278 393.697C298.081 373.31 265.564 356.455 231.642 345.091C214.958 339.559 202.956 336.537 184.825 333.43C164.991 330.025 154.819 327.726 144.179 324.279C117.748 315.682 102.681 302.232 95.8717 281.079C91.1048 266.183 83.6565 231.453 81.188 212.555C80.8475 209.746 80.4644 206.852 80.3793 206.086L80.1665 204.724L84.5078 207.576C93.6585 213.577 103.575 217.748 112.258 219.323C121.025 220.855 131.027 220.982 138.986 219.578C146.094 218.344 155.16 215.364 160.65 212.47C161.884 211.832 162.991 211.236 163.119 211.193C163.246 211.108 163.204 214.088 163.034 217.748C162.736 224.43 162.736 224.473 163.715 225.366C164.353 225.962 164.608 226.473 164.395 226.856C163.672 228.09 162.693 234.134 162.693 237.113C162.693 243.753 165.076 249.413 170.056 254.734C176.696 261.841 185.08 265.97 192.912 265.97C197.891 265.97 203.637 264.14 208.021 261.16L209.596 260.096L212.064 261.331C213.426 262.012 216.235 262.991 218.321 263.544C220.364 264.055 222.151 264.48 222.194 264.565C222.279 264.608 221.938 266.438 221.385 268.609C220.193 273.588 220.066 281.335 221.13 285.633C223.343 294.614 230.281 302.232 241.219 307.723C246.284 310.234 251.689 311.936 254.583 311.936C257.009 311.936 261.478 310.83 265.096 309.382C275.523 305.211 283.099 297.848 287.611 287.463L288.973 284.314L290.42 285.378C292.888 287.251 298.379 289.719 301.741 290.485C305.401 291.294 309.743 291.124 312.211 290.06L313.786 289.421L322.596 294.358C334.896 301.211 339.663 303.424 348.176 306.19L355.496 308.616V310.489C355.496 312.83 356.603 317.895 357.624 320.236C358.816 322.96 360.731 325.258 363.498 327.343C368.605 331.174 378.139 335.345 381.756 335.345C386.864 335.345 392.737 332.578 397.462 327.897L400.909 324.492L403.803 327.599C408.655 332.791 415.295 337.601 421.934 340.623C430.106 344.325 437.044 345.858 448.067 346.411C456.962 346.879 459.942 347.475 463.687 349.475C469.178 352.412 472.199 357.434 472.157 363.648C472.157 369.862 470.412 373.948 462.07 387.525C443.811 417.361 425.51 441.238 404.655 462.561C397.717 469.626 386.651 480.054 385.672 480.394C385.459 480.479 385.289 478.649 385.289 476.308Z" fill="#0F0F15"/>
<path d="M475.647 333.004C474.881 332.408 473.178 331.429 471.859 330.833C466.879 328.62 461.815 327.939 445.514 327.258C426.191 326.45 418.317 324.832 408.655 319.725L404.953 317.81L406.4 314.703C411.975 302.658 411.592 290.06 405.421 284.186C404.527 283.335 402.697 281.888 401.335 280.951L398.824 279.206L401.76 278.313C405.931 276.993 412.486 276.738 418.104 277.674C440.534 281.42 465.688 301.296 474.115 322.023C475.732 325.981 477.349 331.94 477.137 333.217C477.009 334.026 476.966 334.026 475.647 333.004Z" fill="#0F0F15"/>
<path d="M384.183 324.96C383.417 324.619 382.693 324.151 382.565 323.896C382.182 323.3 386.949 313.851 387.417 314.32C387.971 314.958 391.035 324.662 390.737 324.917C390.141 325.556 385.46 325.556 384.183 324.96Z" fill="#0F0F15"/>
<path d="M493.863 321.002C487.436 299.125 462.666 278.823 433.086 271.247C425.722 269.375 420.87 268.864 415.252 269.417C408.017 270.098 401.165 272.482 396.312 276.014L394.397 277.419L391.248 276.44L388.141 275.504L390.013 273.886C393.844 270.609 403.463 265.076 408.272 263.374C410.145 262.693 411.507 261.969 411.592 261.586C411.805 260.479 409.294 258.053 406.272 256.479C402.569 254.563 399.717 253.755 393.972 252.989C382.948 251.499 373.159 252.733 363.583 256.819C358.263 259.075 356.603 260.309 356.432 262.224C356.305 263.714 356.39 263.799 358.561 264.821C359.795 265.417 363.71 267.076 367.201 268.524C370.733 269.971 375.287 271.928 377.373 272.907L381.118 274.652L378.352 275.589C376.777 276.1 374.436 277.121 373.074 277.845L370.605 279.164L360.604 276.185C355.113 274.525 350.346 272.907 349.963 272.524C349.282 271.801 349.027 272.099 354.006 267.757L356.135 265.885L354.943 265.034C353.921 264.267 353.836 264.012 354.049 262.437C354.219 261.458 354.517 260.309 354.73 259.884C354.943 259.501 357.454 258.011 360.306 256.606C365.328 254.138 371.84 252.095 377.33 251.286C379.033 251.031 379.543 250.733 380.395 249.414C381.714 247.541 381.714 246.519 380.522 245.2L379.543 244.178L384.097 244.349C388.226 244.519 388.609 244.476 388.268 243.838C388.056 243.455 387.587 242.902 387.247 242.561C386.864 242.263 386.566 241.752 386.566 241.412C386.566 241.071 389.418 237.879 392.908 234.347C397.419 229.75 399.292 227.494 399.505 226.558L399.803 225.196L406.016 227.707C409.464 229.069 412.273 230.176 412.316 230.091C412.656 229.622 413.294 226.132 413.039 225.92C412.869 225.792 408.996 224.175 404.442 222.344C399.888 220.514 395.674 218.599 395.078 218.088C393.078 216.301 391.886 215.79 382.565 212.555C376.138 210.342 372.691 209.363 371.286 209.363C369.541 209.363 367.03 208.597 361.327 206.427C360.306 206.001 360.093 206.086 359.795 206.937C358.731 209.746 358.731 209.661 361.114 210.427C362.349 210.853 363.498 211.321 363.71 211.449C363.881 211.619 363.413 212.3 362.732 212.981C361.625 214.045 361.327 214.173 360.689 213.705C360.306 213.407 359.284 212.853 358.475 212.513C357.667 212.13 356.943 211.789 356.858 211.704C356.816 211.662 357.113 210.683 357.539 209.533C359.284 205.107 359.369 205.405 355.198 202.681C348.771 198.553 345.707 197.106 340.429 195.744C337.705 195.02 335.067 194.552 334.641 194.68C333.492 195.02 333.109 195.871 332.513 199.106C331.917 202.511 332.215 202.894 336.514 204.256C339.153 205.065 339.621 205.362 339.45 206.043C339.323 206.469 339.067 206.937 338.855 207.022C338.684 207.15 336.046 206.512 333.024 205.575C316.638 200.553 292.973 196.254 275.055 195.105C270.373 194.765 269.139 195.105 253.136 200.596L243.772 203.83L236.324 204.086L228.876 204.384L223.556 201.787C218.534 199.361 202.147 193.02 198.104 191.913C195.848 191.317 194.699 191.913 193.593 194.211C192.912 195.701 192.912 195.786 193.72 196.978C194.657 198.255 194.912 199.574 194.231 199.574C193.763 199.574 183.037 195.786 182.782 195.531C182.697 195.446 183.293 194.552 184.101 193.53C188.655 187.912 194.274 177.272 196.657 169.739C198.955 162.631 199.764 157.821 200.019 150.16C200.488 136.456 197.976 124.666 192.06 113.004L189.634 108.152L191.167 107.939C192.018 107.812 197.295 106.918 202.871 105.939C224.62 102.236 248.029 99.8528 273.991 98.7036C286.291 98.1503 320.894 98.1503 333.237 98.7036C403.505 101.853 460.58 114.749 504.674 137.392C512.122 141.222 523.571 147.905 525.699 149.692C526.508 150.331 526.635 151.139 527.061 157.438C527.657 166.632 527.657 188.551 527.061 197.446C524.593 232.687 516.846 267.502 503.567 302.913C500.928 309.936 495.906 322.406 495.14 323.768C494.97 324.066 494.417 322.874 493.863 321.002ZM389.928 249.456C390.567 248.094 390.524 246.604 389.758 245.966C389.12 245.455 382.31 244.774 382.31 245.285C382.31 245.413 382.523 245.923 382.821 246.392C383.246 247.03 383.204 247.498 382.608 248.733C382.225 249.584 381.884 250.307 381.884 250.35C381.884 250.392 383.587 250.435 385.672 250.435C389.247 250.435 389.545 250.392 389.928 249.456ZM430.532 237.369C432.447 235.538 437.214 229.92 437.214 229.452C437.214 229.197 436.193 228.686 434.958 228.303C430.319 226.984 425.978 226.388 420.402 226.388C414.146 226.388 414.571 226.175 414.018 229.367C413.635 231.453 414.273 232.006 418.572 233.368C420.572 234.006 423.254 235.241 424.531 236.049C428.319 238.56 429.042 238.731 430.532 237.369Z" fill="#0F0F15"/>
<path d="M393.376 316.873C392.397 313.085 392.056 310.957 392.312 310.702C392.737 310.276 402.654 309.17 402.952 309.468C403.037 309.553 402.654 310.744 402.101 312.149C400.994 314.83 399.036 317.852 396.483 320.789L394.865 322.662L393.376 316.873Z" fill="#0F0F15"/>
<path d="M380.607 317.639C380.607 314.405 383.076 305.552 383.97 305.552C384.31 305.552 385.289 308.063 385.289 308.999C385.289 309.34 384.395 311.553 383.289 313.979C381.459 318.065 380.607 319.214 380.607 317.639Z" fill="#0F0F15"/>
<path d="M393.802 303.722C393.802 303.381 395.377 301.04 397.334 298.444L400.867 293.72L401.846 295.167C403.25 297.21 403.974 299.508 404.016 302.062V304.275H398.909C394.951 304.275 393.802 304.147 393.802 303.722Z" fill="#0F0F15"/>
<path d="M387.928 301.296L386.949 299.976L389.631 297.338C392.397 294.571 394.908 293.039 396.398 293.294C397.079 293.422 396.653 294.145 393.589 297.891C391.588 300.359 389.716 302.402 389.418 302.488C389.12 302.53 388.439 302.019 387.928 301.296Z" fill="#0F0F15"/>
<path d="M255.519 299.381C252.625 298.572 250.241 297.125 250.539 296.359C250.837 295.593 258.541 285.974 258.839 285.974C258.967 285.974 259.307 286.144 259.562 286.314C260.286 286.782 264.925 298.827 264.542 299.21C263.819 299.934 257.86 300.019 255.519 299.381Z" fill="#0F0F15"/>
<path d="M352.602 298.146C350.431 297.593 348.601 297.082 348.516 296.997C348.431 296.912 351.027 293.677 354.305 289.804C358.646 284.697 360.519 282.824 361.072 282.909C361.54 282.994 362.647 283.292 363.583 283.548L365.243 284.058L362.902 287.463C360.263 291.294 357.199 297.167 357.199 298.359C357.199 299.295 357.539 299.338 352.602 298.146Z" fill="#0F0F15"/>
<path d="M268.373 289.804C267.012 285.506 266.373 282.824 266.628 282.441C266.884 281.973 268.118 281.718 271.523 281.547C274.077 281.377 277.226 281.164 278.631 281.037L281.099 280.824L280.844 282.015C280.206 284.782 277.141 290.187 274.587 292.911C270.502 297.423 270.842 297.593 268.373 289.804Z" fill="#0F0F15"/>
<path d="M246.581 290.06C245.985 287.676 245.985 282.058 246.581 279.802C247.134 277.632 248.709 273.631 248.965 273.631C249.603 273.631 255.051 278.951 255.051 279.547C255.051 279.93 253.263 282.867 251.05 286.101L247.049 291.932L246.581 290.06Z" fill="#0F0F15"/>
<path d="M336.641 290.485C333.917 289.719 331.534 288.996 331.449 288.868C331.321 288.74 334.3 285.846 338.046 282.399C344.26 276.695 344.983 276.142 345.622 276.738C346.005 277.078 347.835 277.887 349.665 278.525C351.453 279.164 352.942 279.887 352.942 280.1C352.942 280.654 342.77 291.719 342.174 291.805C341.876 291.847 339.408 291.251 336.641 290.485Z" fill="#0F0F15"/>
<path d="M299.23 279.717L290.803 276.908V272.482C290.803 266.949 289.951 262.948 287.738 258.309C286.291 255.33 285.397 254.053 282.333 251.073C278.375 247.2 275.778 245.455 270.458 243.157C263.691 240.22 253.434 238.858 248.241 240.178C242.58 241.582 235.217 246.136 230.621 251.073L228.535 253.287L220.193 252.606L211.851 251.967L209.936 253.797C207.127 256.521 206.233 256.862 205.126 255.84C204.19 254.989 204.148 254.989 201.211 255.755C197.508 256.734 195.082 256.777 191.847 255.968C188.613 255.117 185.591 253.159 183.718 250.733C182.228 248.775 182.058 247.966 182.526 244.519C182.782 242.902 182.952 242.561 183.718 242.561C184.186 242.561 186.91 244.093 189.719 245.966C192.528 247.839 194.912 249.371 195.039 249.371C195.167 249.371 195.252 248.137 195.252 246.647C195.252 244.178 195.38 243.753 196.486 242.604C198.189 240.816 200.147 240.22 202.105 240.859C202.913 241.157 203.722 241.242 203.892 241.071C204.403 240.603 201.381 235.496 198.7 232.261C196.018 229.112 189.677 223.919 186.016 221.919L183.973 220.812L183.59 221.791C183.378 222.344 182.782 226.388 182.314 230.814C181.845 235.241 181.207 239.114 180.952 239.412C180.654 239.752 179.675 240.007 178.568 240.007H176.695L176.951 237.581C177.93 228.388 177.93 228.26 176.823 227.282C175.802 226.388 175.802 226.345 176.1 220.301C176.27 216.982 176.695 213.407 177.036 212.343C177.93 209.576 180.356 204.639 181.505 203.319L182.484 202.128L191.294 204.554C196.146 205.873 200.104 207.022 200.019 207.065C199.977 207.15 197.125 207.703 193.763 208.299C190.358 208.938 187.166 209.704 186.655 210.002C185.889 210.512 183.675 215.194 184.059 215.535C184.144 215.577 185.037 216.088 186.101 216.599C188.74 217.918 194.316 221.663 197.38 224.132C200.828 226.941 204.914 231.921 206.829 235.624C207.68 237.326 208.531 238.731 208.744 238.731C208.957 238.731 210.064 238.262 211.213 237.667L213.341 236.602V238.518C213.341 241.327 214.107 244.051 215.213 245.115C215.767 245.583 217.554 246.392 219.214 246.86L222.236 247.711L224.024 246.817C226.662 245.455 229.386 242.731 230.195 240.603C230.876 238.816 230.876 236.092 230.153 233.793C229.855 232.9 230.025 232.857 234.409 232.559C236.92 232.389 242.751 232.304 247.432 232.431C252.072 232.517 255.902 232.559 255.902 232.474C255.902 231.708 254.455 229.835 253.689 229.622C253.136 229.452 249.475 228.473 245.475 227.409C239.176 225.749 238.58 225.537 241.006 225.707C246.539 226.132 256.455 228.644 259.179 230.303C259.945 230.772 261.563 232.559 262.755 234.262C265.606 238.433 267.181 239.412 272.331 240.476C276.204 241.284 276.672 241.497 278.928 243.455C282.929 246.902 288.632 253.116 292.164 257.883C295.655 262.565 299.953 270.481 301.23 274.567C301.911 276.653 302.379 277.291 305.146 279.589C306.848 281.037 308.253 282.313 308.253 282.399C308.253 282.696 307.912 282.569 299.23 279.717ZM204.531 251.244C206.957 250.009 207.808 248.945 207.808 247.158C207.808 245.923 207.51 245.242 206.744 244.476C204.148 242.093 200.317 241.412 198.317 242.987C196.997 244.051 196.146 246.392 196.529 248.052C196.784 249.243 198.529 251.201 199.721 251.627C200.998 252.095 203.211 251.925 204.531 251.244Z" fill="#0F0F15"/>
<path d="M198.53 248.945C198.275 248.477 198.02 247.668 198.02 247.158C198.02 246.009 199.509 243.412 200.148 243.412C200.36 243.412 200.19 243.795 199.722 244.264C198.743 245.242 198.53 248.435 199.381 249.286C199.679 249.584 199.722 249.797 199.467 249.797C199.254 249.797 198.828 249.413 198.53 248.945Z" fill="#0F0F15"/>
<path d="M272.204 274.61C268.671 274.482 267.862 274.312 267.65 273.759C267.479 273.29 268.416 271.29 270.331 268.141C274.8 260.735 274.247 261.203 276.332 263.203C279.099 265.885 280.971 269.46 281.567 273.333L281.823 274.908L279.184 274.823C277.737 274.78 274.587 274.652 272.204 274.61Z" fill="#0F0F15"/>
<path d="M256.286 269.928L252.753 267.545L255.051 265.459C256.328 264.31 258.754 262.693 260.371 261.884C263.351 260.437 267.735 259.373 268.373 259.969C268.799 260.394 261.35 271.716 260.457 272.056C260.116 272.184 258.328 271.29 256.286 269.928Z" fill="#0F0F15"/>
<path d="M302.72 264.395C302.72 263.629 296.123 253.968 293.357 250.69C291.909 248.988 290.888 247.456 291.101 247.285C291.697 246.732 305.359 242.859 307.189 242.689C308.125 242.604 317.914 243.966 328.895 245.711C339.919 247.456 348.431 248.903 347.835 248.903C347.239 248.945 338.301 248.435 327.959 247.839L309.147 246.732L304.55 249.158C302.039 250.478 299.783 251.712 299.571 251.925C299.358 252.137 299.485 253.031 299.911 254.01C300.975 256.734 303.188 264.395 302.933 264.608C302.805 264.736 302.72 264.65 302.72 264.395Z" fill="#0F0F15"/>
<path d="M349.665 249.073C350.048 248.988 350.729 248.988 351.155 249.073C351.538 249.201 351.197 249.286 350.389 249.286C349.58 249.286 349.24 249.201 349.665 249.073Z" fill="#0F0F15"/>
<path d="M216.448 243.157C215.341 241.454 215.171 237.028 216.107 234.56C217.129 231.836 218.831 229.537 220.449 228.686C221.64 228.005 221.938 228.005 223.002 228.516L224.194 229.112L222.704 229.282C219.512 229.622 217.001 233.879 216.959 239.071C216.959 242.008 217.044 242.263 218.15 243.242L219.342 244.264H218.278C217.554 244.264 216.916 243.88 216.448 243.157Z" fill="#0F0F15"/>
<path d="M359.965 234.857C357.624 233.496 352.517 231.75 348.261 230.899L345.537 230.346L344.345 227.196C343.707 225.451 343.196 223.792 343.196 223.494C343.153 222.813 345.664 221.28 346.899 221.28C349.41 221.28 354.985 225.239 358.263 229.367C360.646 232.346 363.029 236.219 362.434 236.134C362.263 236.092 361.157 235.538 359.965 234.857Z" fill="#0F0F15"/>
<path d="M374.436 230.346L368.903 225.324L369.03 223.238C369.201 221.153 369.201 221.153 366.392 218.514L363.583 215.875L364.647 214.896C365.242 214.343 365.796 213.577 365.923 213.151C366.306 211.917 369.669 212.555 378.011 215.364C384.14 217.45 385.757 218.173 387.162 219.493C388.311 220.514 390.226 221.578 392.652 222.515L396.397 223.919L395.546 225.239C395.078 226.005 392.397 228.516 389.545 230.814C384.736 234.815 384.267 235.07 382.182 235.198L379.969 235.368L374.436 230.346Z" fill="#0F0F15"/>
<path d="M167.545 232.048C168.396 224.685 168.396 224.302 167.204 223.366L166.14 222.515L166.396 215.62C166.608 209.321 166.736 208.427 167.885 205.533C169.29 201.958 171.077 198.68 173.248 195.616C174.44 193.956 174.908 193.616 175.631 193.786C176.142 193.913 176.653 194.041 176.823 194.041C177.036 194.041 176.525 194.935 175.716 196.084C172.865 200.085 169.502 207.065 169.502 208.98C169.502 209.448 170.141 209.831 171.418 210.214C172.482 210.512 173.418 210.895 173.546 211.023C173.631 211.193 173.333 216.216 172.907 222.174C171.971 234.177 172.014 234.049 168.949 234.049H167.289L167.545 232.048Z" fill="#0F0F15"/>
<path d="M294.761 233.283C293.569 232.857 291.739 231.793 290.718 230.984C284.504 225.792 281.652 223.068 281.524 222.217C281.397 221.536 281.865 220.77 283.014 219.748C284.929 217.961 297.527 209.533 299.443 208.725C302.592 207.405 332.045 210.427 333.875 212.257C334.471 212.853 335.875 217.195 339.238 228.686C339.45 229.452 339.238 229.495 334.556 229.197L329.661 228.899L328.214 230.559L326.767 232.219L320.17 232.517C314.041 232.772 305.572 233.325 299.528 233.836C297.698 233.964 296.336 233.836 294.761 233.283Z" fill="#0F0F15"/>
<path d="M259.052 217.45C258.073 217.237 256.328 216.599 255.136 216.003C253.349 215.109 242.964 210.598 240.367 209.619C239.644 209.321 239.772 209.193 241.219 208.682C242.155 208.342 243.304 207.618 243.772 207.065C244.411 206.299 247.731 204.894 256.711 201.66L268.798 197.318L271.522 197.829C276.076 198.68 283.95 201.234 288.377 203.277C290.632 204.341 292.505 205.362 292.505 205.49C292.505 205.618 290.93 206.597 288.973 207.618C287.057 208.682 282.546 211.193 278.928 213.279C275.353 215.322 272.161 217.024 271.863 217.024C271.608 217.024 270.458 216.726 269.352 216.343C267.394 215.662 267.224 215.662 265.351 216.514C262.797 217.663 261.223 217.876 259.052 217.45Z" fill="#0F0F15"/>
<path d="M209.936 205.107C208.872 204.894 205.722 203.873 202.913 202.851C197.21 200.766 197.593 201.234 198.232 196.722L198.487 194.935L204.403 197.02C211.213 199.404 218.959 202.639 220.747 203.788L221.938 204.596L218.406 204.852C216.448 205.022 214.15 205.192 213.341 205.277C212.532 205.362 211 205.277 209.936 205.107Z" fill="#0F0F15"/>
<path d="M118.004 199.361C94.8077 195.446 76.7191 177.74 72.6332 154.97C71.782 150.075 71.782 140.882 72.6758 135.945C73.9526 128.667 77.017 121.219 81.2732 114.749C83.8694 110.791 91.7858 102.875 95.744 100.278C105.32 93.9367 115.152 91 126.516 91C138.901 91 149.456 94.5326 159.373 101.981C169.971 109.982 177.121 121.389 180.016 134.881C181.08 139.946 181.08 151.139 179.973 156.161C177.59 167.227 172.865 175.867 164.864 183.869C158.182 190.551 152.095 194.339 143.328 197.276C135.624 199.829 125.707 200.681 118.004 199.361Z" fill="#0F0F15"/>
<defs>
<linearGradient id="paint0_linear_19_52" x1="0" y1="600" x2="600" y2="0" gradientUnits="userSpaceOnUse">
<stop stop-color="#51A2EA"/>
<stop offset="1" stop-color="#274D9A"/>
</linearGradient>
</defs>
</svg>
