<svg  viewBox="0 0 600 600" fill="none" xmlns="http://www.w3.org/2000/svg">
<path d="M0 240C0 156 0 114 16.35 81.9C30.7308 53.6769 53.6769 30.7308 81.9 16.35C114 0 156 0 240 0H360C444 0 486 0 518.1 16.35C546.323 30.7308 569.269 53.6769 583.65 81.9C600 114 600 156 600 240V360C600 444 600 486 583.65 518.1C569.269 546.323 546.323 569.269 518.1 583.65C486 600 444 600 360 600H240C156 600 114 600 81.9 583.65C53.6769 569.269 30.7308 546.323 16.35 518.1C0 486 0 444 0 360V240Z" fill="url(#paint0_linear_18_9)"/>
<path d="M278.85 60H291.9C300.96 63.51 309.66 68.37 317.58 73.86C320.1 84.39 324.54 95.61 320.7 106.38C317.43 109.38 313.02 110.58 309.06 112.41C309.54 116.58 310.23 120.69 310.86 124.8C318.3 124.2 325.53 122.28 332.82 120.9C333.84 116.58 334.08 111.93 336.84 108.3C337.44 111.21 337.92 114.15 338.28 117.09C342.18 119.31 345.99 122.49 350.85 122.01C381.45 122.01 412.05 121.92 442.65 122.01C446.01 121.74 447.63 125.28 449.94 127.11C450 120.69 449.97 114.27 450.27 107.85L453.87 107.94C454.08 113.55 453.45 119.34 455.07 124.83C456.75 125.22 458.49 125.34 460.26 125.55L460.56 132.15C469.95 132.45 479.46 133.05 488.76 131.46C495.06 130.56 501.42 131.16 507.72 131.16C507.84 133.38 508.02 135.57 508.44 137.76C500.64 138.3 492.72 138.84 484.95 137.55C472.5 136.05 460.08 138.66 447.66 137.97C447.24 139.62 446.82 141.27 446.46 142.98C434.46 143.1 422.55 142.89 410.61 142.95C406.65 142.86 402.27 143.7 399.78 147C396.27 151.32 391.98 155.01 388.62 159.42C387.54 167.55 390.75 175.44 392.61 183.21C389.79 184.23 386.97 185.16 384.21 186.21C381.36 195 382.47 206.22 374.31 212.37C369.81 215.7 365.85 219.87 360.69 222.24C356.97 223.89 352.95 222.18 349.17 221.64C335.13 219.54 323.52 211.02 310.98 205.14C310.17 208.5 309.24 211.8 308.34 215.13C312.12 217.53 317.04 219.63 318.3 224.4C320.22 231.39 318.6 238.71 318.33 245.82C317.73 252.33 317.55 258.9 316.92 265.44C316.32 271.77 312.6 277.23 308.79 282.15C305.19 281.28 301.71 280.26 298.2 279.36C294.39 287.4 297.54 297.39 303.81 303.39C320.1 320.88 328.92 343.35 337.2 365.28C338.61 369.9 343.44 372.66 344.28 377.52C345.63 382.68 347.58 387.87 347.13 393.3C346.5 402.84 345.81 412.38 344.82 421.86C344.16 428.85 341.52 435.81 343.08 442.86C344.22 448.56 344.94 454.65 342.78 460.26C339.93 467.31 339.96 475.02 339.93 482.52C340.05 487.44 340.32 492.87 343.8 496.77C347.91 501.75 351.9 506.94 356.82 511.17C362.91 515.1 371.28 515.13 376.26 520.8C377.85 523.92 376.71 527.55 376.68 530.85C360.9 533.22 344.37 533.4 329.04 528.54C320.4 525.75 310.86 530.52 302.58 525.84C303.03 516.06 305.4 506.55 308.91 497.43C310.35 490.65 308.79 483.6 308.61 476.73C308.52 470.76 305.43 465.51 304.23 459.78C300.81 447.48 299.82 434.73 299.25 422.04C298.5 415.83 303.84 411.12 304.05 405.06C304.682 402.424 304.733 399.682 304.199 397.025C303.665 394.367 302.56 391.858 300.96 389.67C295.11 389.49 287.16 391.02 283.86 384.81C277.02 374.76 270.33 364.59 263.46 354.57C261.06 350.25 255.33 351.27 251.4 349.35C247.89 346.17 246.12 341.67 243.93 337.59C242.67 342.24 240.93 346.92 237.42 350.43C231.9 355.92 229.92 363.48 227.07 370.41C224.918 375.363 223.387 380.562 222.51 385.89C221.76 389.94 221.58 394.65 217.89 397.29C212.49 401.34 210.6 408.09 205.65 412.53C202.102 416.079 199.636 420.563 198.54 425.46C198.15 429.81 199.41 434.16 198.3 438.45C196.29 446.25 191.94 453.15 188.7 460.5C186.45 465.66 185.28 471.24 182.79 476.31C181.11 479.85 176.85 480.99 174.54 483.99C167.857 495.559 165.547 509.142 168.03 522.27C169.98 527.43 171.39 532.83 170.19 538.38C166.05 538.95 161.91 539.61 157.74 540H144.84C141.51 539.31 138.06 538.8 135 537.24C132.876 530.097 132.928 522.483 135.15 515.37C138.15 504.75 140.91 494.04 143.61 483.36C145.47 478.11 141.09 473.4 141.51 468.15C141.06 460.41 145.92 454.05 149.43 447.6C152.73 441.87 151.53 434.94 153.84 428.91C159 415.77 168.78 405.06 174.63 392.25C176.43 387.03 174.48 381.48 174.81 376.11C175.26 365.91 177.3 355.86 179.07 345.81C179.67 341.97 180.93 337.89 179.43 334.08C177.612 329.574 176.892 324.699 177.33 319.86C177.99 315.39 175.29 310.98 176.97 306.63C177.87 302.94 181.32 300.84 184.05 298.53C184.56 283.38 178.95 268.44 181.32 253.32C183.99 250.02 188.31 248.88 192.06 247.2C186.562 246.097 181.072 244.957 175.59 243.78C175.477 237.664 176.121 231.557 177.51 225.6C179.52 216.3 178.41 206.64 179.91 197.25C180.15 194.85 182.79 194.04 184.89 193.95C189.87 193.62 194.88 193.38 199.8 192.21C198.33 180.36 197.1 168.27 199.83 156.45C202.44 142.53 208.77 128.43 220.62 119.79C228.78 114.39 240.57 111.15 249.12 117.63L251.91 115.77C249.365 109.213 248.4 102.148 249.093 95.1484C249.786 88.1487 252.118 81.4107 255.9 75.48C261 67.38 269.91 62.79 278.85 60ZM358.89 150.66C358.44 154.11 357.39 157.56 354 159.18C358.44 158.88 362.97 158.91 367.35 157.98L367.05 150.39C364.328 150.445 361.608 150.515 358.89 150.66ZM349.65 160.41L348.12 162.33C348.81 167.01 352.35 170.82 354.72 174.87C358.14 170.1 361.62 165.33 364.92 160.47C359.82 160.23 354.75 159.87 349.65 160.41Z" fill="#0F0F15"/>
<defs>
<linearGradient id="paint0_linear_18_9" x1="300" y1="0" x2="300" y2="600" gradientUnits="userSpaceOnUse">
<stop stop-color="#F5B13A"/>
<stop offset="1" stop-color="#FCA000"/>
</linearGradient>
</defs>
</svg>
